<svg xmlns="http://www.w3.org/2000/svg" viewBox="0 0 1200 420" width="1200" height="420" role="img" aria-labelledby="t d"><title id="t">Language galaxy</title><desc id="d">TypeScript 66.8%, Python 12.6%, Go 10.0%, JavaScript 4.8%, MDX 2.8%, CSS 1.3%, Rust 0.6%, HTML 0.5%, Other 0.7%</desc><defs><radialGradient id="sun" cx="50%" cy="50%" r="50%"><stop offset="0" stop-color="#f0a65a"/><stop offset="1" stop-color="#d98a4e"/></radialGradient><radialGradient id="halo" cx="50%" cy="50%" r="50%"><stop offset="0" stop-color="#d98a4e" stop-opacity=".28"/><stop offset="1" stop-color="#d98a4e" stop-opacity="0"/></radialGradient></defs><defs><pattern id="g" width="40" height="40" patternUnits="userSpaceOnUse"><path d="M40 0H0V40" fill="none" stroke="#1b2028" stroke-width="1"/></pattern></defs><rect width="1200" height="420" rx="16" fill="#0b0d10"/><rect width="1200" height="420" rx="16" fill="url(#g)"/><rect x=".5" y=".5" width="1199" height="419" rx="16" fill="none" stroke="#262c35"/><text x="40" y="52" font-family="ui-monospace, 'SFMono-Regular', Menlo, Consolas, monospace" font-size="15" fill="#d98a4e" letter-spacing="3">LANGUAGE GALAXY</text><text x="40" y="78" font-family="Inter, 'Segoe UI', system-ui, -apple-system, Helvetica, Arial, sans-serif" font-size="17" fill="#9098a3">Share of code (bytes) across public non-fork repositories</text><circle cx="310" cy="244" r="174" fill="url(#halo)"/><circle cx="310" cy="244" r="58" fill="none" stroke="#262c35" stroke-width="1.2" stroke-dasharray="2 5"/><circle cx="310" cy="244" r="69.5" fill="none" stroke="#262c35" stroke-width="1.2" stroke-dasharray="2 5"/><circle cx="310" cy="244" r="81" fill="none" stroke="#262c35" stroke-width="1.2" stroke-dasharray="2 5"/><circle cx="310" cy="244" r="92.5" fill="none" stroke="#262c35" stroke-width="1.2" stroke-dasharray="2 5"/><circle cx="310" cy="244" r="104" fill="none" stroke="#262c35" stroke-width="1.2" stroke-dasharray="2 5"/><circle cx="310" cy="244" r="115.5" fill="none" stroke="#262c35" stroke-width="1.2" stroke-dasharray="2 5"/><circle cx="310" cy="244" r="127" fill="none" stroke="#262c35" stroke-width="1.2" stroke-dasharray="2 5"/><circle cx="310" cy="244" r="138.5" fill="none" stroke="#262c35" stroke-width="1.2" stroke-dasharray="2 5"/><circle cx="310" cy="244" r="150" fill="none" stroke="#262c35" stroke-width="1.2" stroke-dasharray="2 5"/><circle cx="310" cy="244" r="14" fill="url(#sun)"/><circle cx="310" cy="244" r="24" fill="none" stroke="#d98a4e" stroke-opacity=".45"/><circle cx="357.87" cy="211.25" r="23.89" fill="#5fa8c9" fill-opacity=".14"/><circle cx="357.87" cy="211.25" r="17.89" fill="#5fa8c9"/><circle cx="294.22" cy="311.69" r="16.03" fill="#e8a15c" fill-opacity=".14"/><circle cx="294.22" cy="311.69" r="10.03" fill="#e8a15c"/><circle cx="270.26" cy="173.42" r="15.38" fill="#8fb08a" fill-opacity=".14"/><circle cx="270.26" cy="173.42" r="9.38" fill="#8fb08a"/><circle cx="397.91" cy="272.77" r="13.72" fill="#d9c7a0" fill-opacity=".14"/><circle cx="397.91" cy="272.77" r="7.72" fill="#d9c7a0"/><circle cx="215.27" cy="286.93" r="12.84" fill="#a98bb5" fill-opacity=".14"/><circle cx="215.27" cy="286.93" r="6.84" fill="#a98bb5"/><circle cx="355.36" cy="137.78" r="11.94" fill="#7a8aa0" fill-opacity=".14"/><circle cx="355.36" cy="137.78" r="5.94" fill="#7a8aa0"/><circle cx="352.14" cy="363.81" r="11.32" fill="#c46a4a" fill-opacity=".14"/><circle cx="352.14" cy="363.81" r="5.32" fill="#c46a4a"/><circle cx="187.85" cy="178.72" r="11.2" fill="#d2796a" fill-opacity=".14"/><circle cx="187.85" cy="178.72" r="5.2" fill="#d2796a"/><circle cx="455.3" cy="206.75" r="11.42" fill="#6b7280" fill-opacity=".14"/><circle cx="455.3" cy="206.75" r="5.42" fill="#6b7280"/><text x="638" y="126" font-family="ui-monospace, 'SFMono-Regular', Menlo, Consolas, monospace" font-size="13" fill="#9098a3" text-anchor="end">01</text><circle cx="668" cy="120" r="6" fill="#5fa8c9"/><text x="686" y="126" font-family="Inter, 'Segoe UI', system-ui, -apple-system, Helvetica, Arial, sans-serif" font-size="19" fill="#e8e6e1">TypeScript</text><rect x="850" y="111" width="250" height="9" rx="4.5" fill="#11151a"/><rect x="850" y="111" width="167" height="9" rx="4.5" fill="#5fa8c9"/><text x="1160" y="126" font-family="ui-monospace, 'SFMono-Regular', Menlo, Consolas, monospace" font-size="18" fill="#9098a3" text-anchor="end">66.8%</text><text x="638" y="153" font-family="ui-monospace, 'SFMono-Regular', Menlo, Consolas, monospace" font-size="13" fill="#9098a3" text-anchor="end">02</text><circle cx="668" cy="147" r="6" fill="#e8a15c"/><text x="686" y="153" font-family="Inter, 'Segoe UI', system-ui, -apple-system, Helvetica, Arial, sans-serif" font-size="19" fill="#e8e6e1">Python</text><rect x="850" y="138" width="250" height="9" rx="4.5" fill="#11151a"/><rect x="850" y="138" width="31.5" height="9" rx="4.5" fill="#e8a15c"/><text x="1160" y="153" font-family="ui-monospace, 'SFMono-Regular', Menlo, Consolas, monospace" font-size="18" fill="#9098a3" text-anchor="end">12.6%</text><text x="638" y="180" font-family="ui-monospace, 'SFMono-Regular', Menlo, Consolas, monospace" font-size="13" fill="#9098a3" text-anchor="end">03</text><circle cx="668" cy="174" r="6" fill="#8fb08a"/><text x="686" y="180" font-family="Inter, 'Segoe UI', system-ui, -apple-system, Helvetica, Arial, sans-serif" font-size="19" fill="#e8e6e1">Go</text><rect x="850" y="165" width="250" height="9" rx="4.5" fill="#11151a"/><rect x="850" y="165" width="25" height="9" rx="4.5" fill="#8fb08a"/><text x="1160" y="180" font-family="ui-monospace, 'SFMono-Regular', Menlo, Consolas, monospace" font-size="18" fill="#9098a3" text-anchor="end">10.0%</text><text x="638" y="207" font-family="ui-monospace, 'SFMono-Regular', Menlo, Consolas, monospace" font-size="13" fill="#9098a3" text-anchor="end">04</text><circle cx="668" cy="201" r="6" fill="#d9c7a0"/><text x="686" y="207" font-family="Inter, 'Segoe UI', system-ui, -apple-system, Helvetica, Arial, sans-serif" font-size="19" fill="#e8e6e1">JavaScript</text><rect x="850" y="192" width="250" height="9" rx="4.5" fill="#11151a"/><rect x="850" y="192" width="12" height="9" rx="4.5" fill="#d9c7a0"/><text x="1160" y="207" font-family="ui-monospace, 'SFMono-Regular', Menlo, Consolas, monospace" font-size="18" fill="#9098a3" text-anchor="end">4.8%</text><text x="638" y="234" font-family="ui-monospace, 'SFMono-Regular', Menlo, Consolas, monospace" font-size="13" fill="#9098a3" text-anchor="end">05</text><circle cx="668" cy="228" r="6" fill="#a98bb5"/><text x="686" y="234" font-family="Inter, 'Segoe UI', system-ui, -apple-system, Helvetica, Arial, sans-serif" font-size="19" fill="#e8e6e1">MDX</text><rect x="850" y="219" width="250" height="9" rx="4.5" fill="#11151a"/><rect x="850" y="219" width="7" height="9" rx="4.5" fill="#a98bb5"/><text x="1160" y="234" font-family="ui-monospace, 'SFMono-Regular', Menlo, Consolas, monospace" font-size="18" fill="#9098a3" text-anchor="end">2.8%</text><text x="638" y="261" font-family="ui-monospace, 'SFMono-Regular', Menlo, Consolas, monospace" font-size="13" fill="#9098a3" text-anchor="end">06</text><circle cx="668" cy="255" r="6" fill="#7a8aa0"/><text x="686" y="261" font-family="Inter, 'Segoe UI', system-ui, -apple-system, Helvetica, Arial, sans-serif" font-size="19" fill="#e8e6e1">CSS</text><rect x="850" y="246" width="250" height="9" rx="4.5" fill="#11151a"/><rect x="850" y="246" width="4" height="9" rx="4.5" fill="#7a8aa0"/><text x="1160" y="261" font-family="ui-monospace, 'SFMono-Regular', Menlo, Consolas, monospace" font-size="18" fill="#9098a3" text-anchor="end">1.3%</text><text x="638" y="288" font-family="ui-monospace, 'SFMono-Regular', Menlo, Consolas, monospace" font-size="13" fill="#9098a3" text-anchor="end">07</text><circle cx="668" cy="282" r="6" fill="#c46a4a"/><text x="686" y="288" font-family="Inter, 'Segoe UI', system-ui, -apple-system, Helvetica, Arial, sans-serif" font-size="19" fill="#e8e6e1">Rust</text><rect x="850" y="273" width="250" height="9" rx="4.5" fill="#11151a"/><rect x="850" y="273" width="4" height="9" rx="4.5" fill="#c46a4a"/><text x="1160" y="288" font-family="ui-monospace, 'SFMono-Regular', Menlo, Consolas, monospace" font-size="18" fill="#9098a3" text-anchor="end">0.6%</text><text x="638" y="315" font-family="ui-monospace, 'SFMono-Regular', Menlo, Consolas, monospace" font-size="13" fill="#9098a3" text-anchor="end">08</text><circle cx="668" cy="309" r="6" fill="#d2796a"/><text x="686" y="315" font-family="Inter, 'Segoe UI', system-ui, -apple-system, Helvetica, Arial, sans-serif" font-size="19" fill="#e8e6e1">HTML</text><rect x="850" y="300" width="250" height="9" rx="4.5" fill="#11151a"/><rect x="850" y="300" width="4" height="9" rx="4.5" fill="#d2796a"/><text x="1160" y="315" font-family="ui-monospace, 'SFMono-Regular', Menlo, Consolas, monospace" font-size="18" fill="#9098a3" text-anchor="end">0.5%</text><text x="638" y="342" font-family="ui-monospace, 'SFMono-Regular', Menlo, Consolas, monospace" font-size="13" fill="#9098a3" text-anchor="end">09</text><circle cx="668" cy="336" r="6" fill="#6b7280"/><text x="686" y="342" font-family="Inter, 'Segoe UI', system-ui, -apple-system, Helvetica, Arial, sans-serif" font-size="19" fill="#e8e6e1">Other</text><rect x="850" y="327" width="250" height="9" rx="4.5" fill="#11151a"/><rect x="850" y="327" width="4" height="9" rx="4.5" fill="#6b7280"/><text x="1160" y="342" font-family="ui-monospace, 'SFMono-Regular', Menlo, Consolas, monospace" font-size="18" fill="#9098a3" text-anchor="end">0.7%</text></svg>
